Coordinates
version=1
nRows=17
nColumns=24
inDegrees=yes

Units are S.I. units (second, meters, Newtons, ...)
Angles are in degrees.

endheader
time	pelvis_tilt	pelvis_list	pelvis_rotation	pelvis_tx	pelvis_ty	pelvis_tz	hip_flexion_r	hip_adduction_r	hip_rotation_r	knee_angle_r	ankle_angle_r	subtalar_angle_r	mtp_angle_r	hip_flexion_l	hip_adduction_l	hip_rotation_l	knee_angle_l	ankle_angle_l	subtalar_angle_l	mtp_angle_l	lumbar_extension	lumbar_bending	lumbar_rotation
      1.25000000	     64.56845264	      4.24743280	     -1.72168957	      0.76841288	      1.02591714	     -0.28818638	      4.77635520	    -12.62904134	     -0.18532991	    -86.39846991	     17.58091045	     -1.29246245	    -29.39414275	     -0.78480031	     -3.03638319	    -10.84388327	    -64.58405759	     17.97492722	     -5.90851978	    -35.71712865	      0.00000000	      0.00000000	      0.00000000
      1.26000000	     64.57641661	      4.15266810	     -1.74089216	      0.76843248	      1.02577223	     -0.28810168	      4.86976528	    -12.53782355	     -0.42251157	    -84.41755181	     17.77185407	     -1.84263840	    -29.50794786	     -0.93237118	     -3.04599668	    -10.74562027	    -64.61521380	     17.75015275	     -6.25509843	    -38.89506857	      0.00000000	      0.00000000	      0.00000000
      1.27000000	     64.59825978	      4.08961857	     -1.76133211	      0.76852672	      1.02564863	     -0.28814081	      4.83988689	    -12.46505101	     -0.62769294	    -82.12169771	     17.99608422	     -2.19262929	    -29.62430812	     -1.02642048	     -3.06202012	    -10.72389184	    -64.76434500	     17.12269250	     -6.79611823	    -43.49763908	      0.00000000	      0.00000000	      0.00000000
      1.28000000	     64.64526909	      4.06748630	     -1.77223535	      0.76863213	      1.02555680	     -0.28811745	      4.68091398	    -12.38383117	     -0.78726234	    -79.56032158	     18.24785054	     -2.38412206	    -29.70917418	     -1.04030769	     -3.08018163	    -10.80068080	    -65.06479926	     16.07443638	     -7.46495985	    -49.62577843	      0.00000000	      0.00000000	      0.00000000
      1.29000000	     64.71686797	      4.07778353	     -1.77224847	      0.76869981	      1.02563976	     -0.28797132	      4.40965219	    -12.27556486	     -0.89409991	    -76.81163622	     18.50311216	     -2.49799575	    -29.72622596	     -0.97609695	     -3.10504009	    -10.96853853	    -65.50450735	     14.65426424	     -8.16260666	    -57.31751642	      0.00000000	      0.00000000	      0.00000000
      1.30000000	     64.80084541	      4.10356812	     -1.76981273	      0.76872057	      1.02596154	     -0.28778597	      4.06477521	    -12.13032672	     -0.94748655	    -73.96322257	     18.72477557	     -2.62895684	    -29.64726005	     -0.86460108	     -3.14504697	    -11.19111407	    -66.02817350	     12.97402149	     -8.77235017	    -66.53043742	      0.00000000	      0.00000000	      0.00000000
      1.31000000	     64.87750013	      4.12908413	     -1.77408959	      0.76871823	      1.02628946	     -0.28765757	      3.69409032	    -11.94475032	     -0.94683370	    -71.08351993	     18.87066667	     -2.86039968	    -29.46140080	     -0.75219291	     -3.20367876	    -11.41940768	    -66.56292465	     11.18706312	     -9.18017895	    -77.12669739	      0.00000000	      0.00000000	      0.00000000
      1.32000000	     64.93228646	      4.14611307	     -1.78460780	      0.76873164	      1.02641256	     -0.28759729	      3.33959624	    -11.72094060	     -0.88690341	    -68.20306636	     18.90351849	     -3.24597815	    -29.18022148	     -0.67814482	     -3.27362827	    -11.61479889	    -67.05286727	      9.45613659	     -9.29691994	    -88.86313984	      0.00000000	      0.00000000	      0.00000000
      1.33000000	     64.96373181	      4.15532310	     -1.79107958	      0.76881432	      1.02637725	     -0.28754086	      3.02358459	    -11.46858714	     -0.75965542	    -65.31884664	     18.80123107	     -3.80134093	    -28.83695593	     -0.65534638	     -3.34006294	    -11.76343059	    -67.47912793	      7.92173965	     -9.07705603	   -101.38895295	      0.00000000	      0.00000000	      0.00000000
      1.34000000	     64.97741197	      4.16358082	     -1.78348403	      0.76895788	      1.02636241	     -0.28744527	      2.74284474	    -11.20574696	     -0.56274553	    -62.42078076	     18.56408138	     -4.50546457	    -28.47981288	     -0.66861951	     -3.38961715	    -11.87457471	    -67.85546941	      6.67951702	     -8.52979113	   -114.25260540	      0.00000000	      0.00000000	      0.00000000
      1.35000000	     64.97697977	      4.17978969	     -1.76133032	      0.76908957	      1.02646984	     -0.28735024	      2.47797449	    -10.95476595	     -0.30777435	    -59.52087597	     18.21585088	     -5.30868099	    -28.16131148	     -0.68884097	     -3.41739202	    -11.96847383	    -68.20869285	      5.77031061	     -7.71990775	   -126.91871998	      0.00000000	      0.00000000	      0.00000000
      1.36000000	     64.96283919	      4.20977610	     -1.73259335	      0.76917336	      1.02665020	     -0.28731290	      2.21392557	    -10.73600119	     -0.02017156	    -56.66524744	     17.79829131	     -6.14461767	    -27.92676641	     -0.69148338	     -3.42732179	    -12.06357419	    -68.55995152	      5.18297354	     -6.75815870	   -138.79426983	      0.00000000	      0.00000000	      0.00000000
      1.37000000	     64.93666670	      4.25247777	     -1.70532304	      0.76922497	      1.02683079	     -0.28732416	      1.95763122	    -10.56242015	      0.26911256	    -53.92680352	     17.36096525	     -6.94378135	    -27.80505223	     -0.66836889	     -3.42769622	    -12.16908085	    -68.91580733	      4.86771817	     -5.78300192	   -149.26223278	      0.00000000	      0.00000000	      0.00000000
      1.38000000	     64.90393355	      4.30138549	     -1.68284189	      0.76926318	      1.02700141	     -0.28734200	      1.73843229	    -10.43637544	      0.53321027	    -51.38826138	     16.95000742	     -7.64641819	    -27.80371279	     -0.62600144	     -3.42753160	    -12.28318057	    -69.26765621	      4.75604429	     -4.93700786	   -157.71992329	      0.00000000	      0.00000000	      0.00000000
      1.39000000	     64.87127596	      4.34864724	     -1.66496799	      0.76929076	      1.02716989	     -0.28736335	      1.59375204	    -10.34981329	      0.75500975	    -49.12483782	     16.59936113	     -8.21229870	    -27.90902237	     -0.57573966	     -3.43530153	    -12.39526766	    -69.59657712	      4.78229882	     -4.34193003	   -163.61885612	      0.00000000	      0.00000000	      0.00000000
      1.40000000	     64.84210093	      4.38647702	     -1.65011927	      0.76930329	      1.02732001	     -0.28740516	      1.55372864	    -10.28827437	      0.92792455	    -47.19123545	     16.32663531	     -8.62566685	    -28.09034953	     -0.52580344	     -3.45778003	    -12.49066063	    -69.88180503	      4.90241694	     -4.07682007	   -166.50322939	      0.00000000	      0.00000000	      0.00000000
      1.41000000	     64.81487358	      4.40710786	     -1.63672515	      0.76929167	      1.02742847	     -0.28745465	      1.63326478	    -10.23576083	      1.05229718	    -45.61499512	     16.13373531	     -8.89467794	    -28.30736364	     -0.47847070	     -3.49847073	    -12.55593738	    -70.10954055	      5.10671022	     -4.16368643	   -166.04471038	      0.00000000	      0.00000000	      0.00000000
